<svg xmlns="http://www.w3.org/2000/svg" viewBox="0 0 64 64" role="img" aria-labelledby="title">
  <title id="title">LetterLog</title>
  <defs>
    <linearGradient id="bg" x1="8" y1="6" x2="56" y2="60" gradientUnits="userSpaceOnUse">
      <stop stop-color="#8B6F47"/>
      <stop offset="1" stop-color="#6B8F71"/>
    </linearGradient>
    <linearGradient id="paper" x1="22" y1="14" x2="43" y2="51" gradientUnits="userSpaceOnUse">
      <stop stop-color="#FFFDF9"/>
      <stop offset="1" stop-color="#F2EBDD"/>
    </linearGradient>
    <filter id="shadow" x="-20%" y="-20%" width="140%" height="150%">
      <feDropShadow dx="0" dy="3" stdDeviation="3" flood-color="#26352B" flood-opacity=".28"/>
    </filter>
  </defs>
  <rect x="3" y="3" width="58" height="58" rx="17" fill="url(#bg)"/>
  <circle cx="17" cy="16" r="10" fill="#FFF" opacity=".08"/>
  <path d="M20 13h17l9 9v26a4 4 0 0 1-4 4H20a4 4 0 0 1-4-4V17a4 4 0 0 1 4-4Z" fill="url(#paper)" filter="url(#shadow)"/>
  <path d="M37 13v7a3 3 0 0 0 3 3h6" fill="#DCCFB9"/>
  <path d="M37 13v7a3 3 0 0 0 3 3h6" fill="none" stroke="#B8A98F" stroke-width="1.5" stroke-linejoin="round"/>
  <path d="M24 30h14M24 36h14M24 42h9" fill="none" stroke="#6B8F71" stroke-width="3" stroke-linecap="round"/>
  <circle cx="43" cy="44" r="8" fill="#8B6F47"/>
  <path d="m39.5 44 2.2 2.2 4.3-4.5" fill="none" stroke="#FFFDF9" stroke-width="2.4" stroke-linecap="round" stroke-linejoin="round"/>
</svg>
